<svg width="21" height="21" viewBox="0 0 21 21" fill="none" xmlns="http://www.w3.org/2000/svg">
<g id="Social media logo">
<path id="vector" d="M19.5288 10.2801C19.5288 9.55944 19.4692 9.03358 19.34 8.48825H10.9434V11.7408H15.872C15.7727 12.5491 15.2361 13.7663 14.0436 14.5843L14.0269 14.6932L16.6818 16.7087L16.8657 16.7267C18.555 15.1978 19.5288 12.9483 19.5288 10.2801Z" fill="#4285F4"/>
<path id="vector_2" d="M10.9424 18.8497C13.357 18.8497 15.3841 18.0706 16.8647 16.7268L14.0427 14.5843C13.2875 15.1004 12.2739 15.4608 10.9424 15.4608C8.57743 15.4608 6.57019 13.9319 5.85467 11.8187L5.74979 11.8274L2.98923 13.9212L2.95312 14.0195C4.42376 16.8825 7.44458 18.8497 10.9424 18.8497Z" fill="#34A853"/>
<path id="vector_3" d="M5.85547 11.8188C5.66668 11.2735 5.55741 10.6892 5.55741 10.0854C5.55741 9.48165 5.66668 8.89738 5.84554 8.35205L5.84054 8.23591L3.04537 6.10857L2.95392 6.1512C2.34779 7.33927 2 8.67342 2 10.0854C2 11.4975 2.34779 12.8316 2.95392 14.0196L5.85547 11.8188Z" fill="#FBBC05"/>
<path id="vector_4" d="M10.9424 4.70992C12.6217 4.70992 13.7545 5.4208 14.4005 6.01487L16.9244 3.59979C15.3743 2.18776 13.3571 1.32106 10.9424 1.32106C7.4446 1.32106 4.42377 3.28815 2.95312 6.15115L5.84476 8.352C6.57022 6.23883 8.57746 4.70992 10.9424 4.70992Z" fill="#EB4335"/>
</g>
</svg>
