<svg width="217" height="27" viewBox="0 0 217 27" fill="none" xmlns="http://www.w3.org/2000/svg">
<g id="Frame" clip-path="url(#clip0_6111_359)">
<g id="Group">
<path id="Vector" d="M73.3442 0V27H100.393V0H73.3442ZM95.2906 21.9017C95.2906 21.9017 88.7569 16.7467 78.4518 21.9017C78.4518 21.9017 84.5496 13.4976 78.4518 5.09354C87.6624 9.90804 95.2906 5.09354 95.2906 5.09354C95.2906 5.09354 89.7709 12.3058 95.2906 21.9017Z" fill="url(#paint0_linear_6111_359)"/>
<path id="Vector_2" d="M12.6315 21.9017L2.90439 9.6763V21.9065H0V4.25171H2.47323L12.2003 16.5292V4.25171H15.1047V21.9017H12.6315Z" fill="white"/>
<path id="Vector_3" d="M19.3784 4.25171H29.6077V7.15082H22.4818V11.5397H28.8449V14.4388H22.4818V19.0026H29.8589V21.9017H19.3784V4.25171Z" fill="white"/>
<path id="Vector_4" d="M50.5214 21.9017H47.617L43.3481 9.14188L39.1549 21.9017H36.2269L30.9487 4.25171H34.4359L37.9989 16.8318L41.9409 4.25171H45.0206L49.0621 16.8602L52.5966 4.25171H55.5768L50.5214 21.9017Z" fill="white"/>
<path id="Vector_5" d="M56.6144 8.84394C56.6144 6.19549 58.6849 3.97742 62.1199 3.97742C64.2899 3.97742 66.1093 4.71047 67.1706 5.86917L65.5028 8.19129C64.6452 7.35892 63.7877 6.88125 62.371 6.88125C60.8312 6.88125 59.893 7.6616 59.893 8.82503C59.893 12.4808 67.9002 11.3221 67.9002 17.196C67.9002 20.1708 65.2991 22.1902 61.9872 22.1902C59.713 22.1902 57.0597 21.2065 56.2021 19.4141L57.9694 17.2953C59.007 18.6337 60.6748 19.2864 62.0346 19.2864C63.4987 19.2864 64.6121 18.5534 64.6121 17.2197C64.6216 13.7341 56.6144 14.5901 56.6144 8.84394Z" fill="white"/>
<path id="Vector_6" d="M106.477 4.25171H109.585V19.0026H117.54V21.9017H106.477V4.25171Z" fill="white"/>
<path id="Vector_7" d="M119.663 4.25171H129.892V7.15082H122.771V11.5397H129.134V14.4388H122.771V19.0026H130.148V21.9017H119.667V4.25171H119.663Z" fill="white"/>
<path id="Vector_8" d="M132.024 4.25171H144.845V7.15082H140.202V21.9017H137.094V7.15082H132.024V4.25171Z" fill="white"/>
<path id="Vector_9" d="M147.162 4.25171H159.699V7.15082H155.283V21.9017H152.175V7.15082H147.162V4.25171Z" fill="white"/>
<path id="Vector_10" d="M163.091 4.25171H173.321V7.15082H166.199V11.5397H172.563V14.4388H166.199V19.0026H173.576V21.9017H163.096V4.25171H163.091Z" fill="white"/>
<path id="Vector_11" d="M176.983 21.9017V4.2517C177.968 4.2517 181.858 4.19968 182.365 4.19968C187.189 4.19968 188.781 6.59747 188.781 9.64792C188.781 12.6747 186.833 14.1881 185.369 14.6894L190.903 21.9017H187.141L182.266 15.2948H180.096V21.9017H176.983ZM180.091 7.15081V12.3957H182.109C183.905 12.3957 185.492 11.4876 185.492 9.67156C185.492 8.28586 184.734 7.09878 182.209 7.09878C181.631 7.10351 180.925 7.12716 180.091 7.15081Z" fill="white"/>
<path id="Vector_12" d="M192.974 4.25171H196.082V19.0026H204.037V21.9017H192.974V4.25171Z" fill="white"/>
<path id="Vector_13" d="M210.708 14.5428V21.9065H207.6V14.5428L201.36 4.25171H204.894L209.291 11.639L213.636 4.25171H217L210.708 14.5428Z" fill="white"/>
</g>
</g>
<defs>
<linearGradient id="paint0_linear_6111_359" x1="86.8708" y1="27.0001" x2="86.8708" y2="0" gradientUnits="userSpaceOnUse">
<stop offset="0.0159" stop-color="#656DFF"/>
<stop offset="1" stop-color="#F13C84"/>
</linearGradient>
<clipPath id="clip0_6111_359">
<rect width="217" height="27" fill="white"/>
</clipPath>
</defs>
</svg>
